# xmcd
#
# Track frame offsets: 
#        150
#        20941
#        51405
#        75049
#        101837
#        121732
#        143122
#        167666
#        189234
#        211376
#        237168
#        258396
#        279762
#        306139
#        332105
#
# Disc length: 4708 seconds
#
# Revision: 3
# Processed by: cddbd v1.5.2PL0 Copyright (c) Steve Scherf et al.
# Submitted via: ExactAudioCopy v1.0b3
#
DISCID=c912620f
DTITLE=????? - ????????
DYEAR=2013
DGENRE=JPop
TTITLE0=M
TTITLE1=??????
TTITLE2=for you...
TTITLE3=???????
TTITLE4=??????????
TTITLE5=????
TTITLE6=??
TTITLE7=????????
TTITLE8=Get Along Together
TTITLE9=????????? ?Missing You?
TTITLE10=???????????
TTITLE11=??????????
TTITLE12=???????
TTITLE13=????????
TTITLE14=?
EXTD=YEAR: 2013
EXTT0=
EXTT1=
EXTT2=
EXTT3=
EXTT4=
EXTT5=
EXTT6=
EXTT7=
EXTT8=
EXTT9=
EXTT10=
EXTT11=
EXTT12=
EXTT13=
EXTT14=
PLAYORDER=
